<svg width="16" height="14" viewBox="0 0 16 14" fill="none" xmlns="http://www.w3.org/2000/svg">
<path d="M6.80357 12.9094L7.59643 13.6031C7.93214 13.8969 8.475 13.8969 8.80714 13.6031L15.75 7.53125C16.0857 7.2375 16.0857 6.7625 15.75 6.47188L8.80714 0.396878C8.47143 0.103128 7.92857 0.103128 7.59643 0.396878L6.80357 1.09063C6.46429 1.3875 6.47143 1.87188 6.81786 2.1625L11.1214 5.75H0.857143C0.382143 5.75 0 6.08438 0 6.5V7.5C0 7.91563 0.382143 8.25 0.857143 8.25H11.1214L6.81786 11.8375C6.46786 12.1281 6.46071 12.6125 6.80357 12.9094Z" fill="white"/>
</svg>
