<svg width="48" height="44" viewBox="0 0 48 44" fill="none" xmlns="http://www.w3.org/2000/svg">
<path d="M47.4375 9.5V11.0625C47.4375 11.2697 47.3552 11.4684 47.2087 11.6149C47.0622 11.7614 46.8634 11.8437 46.6562 11.8437H44.3125V13.0156C44.3125 13.6628 43.7878 14.1875 43.1406 14.1875H4.85938C4.21221 14.1875 3.6875 13.6628 3.6875 13.0156V11.8437H1.34375C1.13655 11.8437 0.937836 11.7614 0.791323 11.6149C0.64481 11.4684 0.5625 11.2697 0.5625 11.0625V9.5C0.562501 9.34544 0.608347 9.19435 0.694238 9.06585C0.780129 8.93735 0.902205 8.83722 1.04502 8.77812L23.7013 0.184371C23.8925 0.105169 24.1075 0.105169 24.2987 0.184371L46.955 8.77812C47.0978 8.83722 47.2199 8.93735 47.3058 9.06585C47.3917 9.19435 47.4375 9.34544 47.4375 9.5ZM45.0938 39.1875H2.90625C1.61182 39.1875 0.5625 40.2368 0.5625 41.5312V43.0938C0.5625 43.3009 0.64481 43.4997 0.791323 43.6462C0.937836 43.7927 1.13655 43.875 1.34375 43.875H46.6562C46.8634 43.875 47.0622 43.7927 47.2087 43.6462C47.3552 43.4997 47.4375 43.3009 47.4375 43.0938V41.5312C47.4375 40.2368 46.3882 39.1875 45.0938 39.1875ZM8.375 15.75V34.5H4.85938C4.21221 34.5 3.6875 35.0247 3.6875 35.6719V37.625H44.3125V35.6719C44.3125 35.0247 43.7878 34.5 43.1406 34.5H39.625V15.75H33.375V34.5H27.125V15.75H20.875V34.5H14.625V15.75H8.375Z" fill="#E6E1C2"/>
</svg>
