<svg width="50" height="47" viewBox="0 0 50 47" fill="none" xmlns="http://www.w3.org/2000/svg">
<path d="M1.21215 13.4883L23.96 23.117C24.624 23.3986 25.375 23.3986 26.0391 23.117L48.7869 13.4883C50.4031 12.804 50.4031 10.5251 48.7869 9.84078L26.04 0.211169C25.7138 0.0720192 25.3592 0 25.0005 0C24.6418 0 24.2872 0.0720192 23.9609 0.211169L1.21215 9.83987C-0.404049 10.5242 -0.404049 12.804 1.21215 13.4883ZM48.7879 21.5324L43.1151 19.1332L27.3301 25.8096C26.5918 26.1222 25.8076 26.2807 25 26.2807C24.1924 26.2807 23.4092 26.1222 22.6699 25.8096L6.88592 19.1332L1.21215 21.5324C-0.404049 22.2159 -0.404049 24.4939 1.21215 25.1773L23.96 34.7987C24.624 35.0793 25.375 35.0793 26.0391 34.7987L48.7879 25.1773C50.404 24.4939 50.404 22.2159 48.7879 21.5324ZM48.7879 33.1776L43.1365 30.7876L27.3301 37.4731C26.5918 37.7856 25.8076 37.9442 25 37.9442C24.1924 37.9442 23.4092 37.7856 22.6699 37.4731L6.86444 30.7876L1.21215 33.1776C-0.404049 33.861 -0.404049 36.1391 1.21215 36.8225L23.96 46.4439C24.624 46.7245 25.375 46.7245 26.0391 46.4439L48.7879 36.8225C50.404 36.1391 50.404 33.861 48.7879 33.1776Z" fill="#E6E1C2"/>
</svg>
